<?xml version="1.0" encoding="UTF-8"?>
<svg width="476px" height="345px" viewBox="0 0 476 345" version="1.1" xmlns="http://www.w3.org/2000/svg" xmlns:xlink="http://www.w3.org/1999/xlink">
    <!-- Generator: Sketch 52.5 (67469) - http://www.bohemiancoding.com/sketch -->
    <title>teamwork_dark_5</title>
    <desc>Created with Sketch.</desc>
    <g id="Landing-Page" stroke="none" stroke-width="1" fill="none" fill-rule="evenodd">
        <g id="Home" transform="translate(-799.000000, -11978.000000)">
            <g id="Section---CTA" transform="translate(-0.500000, 11800.863969)">
                <g id="teamwork_dark_5" transform="translate(800.126065, 177.615755)">
                    <polygon id="Path" fill="#303763" points="212.788108 244.782928 212.788108 308.945013 135.487188 308.945013 133.199002 250.486814"></polygon>
                    <path d="M122.938639,94.8436848 L109.149827,169.790093 L61.568806,173.238954 C61.568806,173.238954 59.1546032,179.639245 60.3617046,184.858964 L61.568806,190.078683 C61.568806,190.078683 114.157308,191.013855 122.699872,188.221604 C131.242436,185.429353 131.202642,117.473521 131.050096,110.00541 C130.89755,102.537298 122.938639,94.8436848 122.938639,94.8436848 Z" id="Path" fill="#108CFF"></path>
                    <path d="M200.120175,90.7448459 L236.996461,121.373387 L304.527817,109.110032 C304.527817,109.110032 308.958278,117.904628 309.289899,121.174414 L309.62152,124.450832 C309.62152,124.450832 243.018703,144.838908 234.37002,144.427698 C225.721338,144.016488 193.527544,117.712288 193.527544,117.712288 L200.120175,90.7448459 Z" id="Path" fill="#108CFF"></path>
                    <path d="M149.892817,83.296632 L122.938639,94.8436848 L124.6896,255.089718 C124.6896,255.089718 176.482211,265.330183 196.910081,260.04414 L217.337952,254.738199 L202.81294,95.2880574 C202.569701,92.676439 200.711339,90.4995004 198.170242,89.8494684 L174.107802,83.6149885 L149.892817,83.296632 Z" id="Path" fill="#108CFF"></path>
                    <path d="M122.699872,120.305566 L124.159006,255.089718 C124.159006,255.089718 165.246882,263.214439 188.665976,261.251241 L122.699872,120.305566 Z" id="Path" fill="#0D7CE4"></path>
                    <polygon id="Path" fill="#E68D5C" points="249.160329 154.363071 245.645144 192.174529 215.998202 246.872142 225.389716 251.51484 265.436301 195.948379 266.809214 152.738127"></polygon>
                    <path d="M324.637332,275.38494 C324.637332,275.38494 326.096465,289.021207 326.096465,295.434762 C326.096465,301.848318 323.290949,311.458702 323.290949,311.458702 L275.35841,311.458702 L278.833801,271.107025 L324.637332,275.38494 Z" id="Path" fill="#303763"></path>
                    <path d="M246.102781,153.640137 C246.102781,153.640137 250.234782,128.005812 258.001352,120.849425 C263.57259,115.702663 269.004546,115.848576 272.798294,116.710792 C276.592041,117.573007 280.093962,130.605723 276.399701,148.181651 C273.859482,160.365417 273.527861,161.645475 273.527861,161.645475 C273.527861,161.645475 253.53773,162.31535 246.102781,153.640137 Z" id="Path" fill="#6F38E1"></path>
                    <path d="M299.652985,109.083502 L330.958033,123.044758 L325.20772,276.72469 L249.160329,276.72469 L256.011625,125.896701 C256.149158,122.945089 257.788563,120.269479 260.355864,118.806638 L276.936927,109.395226 L299.652985,109.083502 Z" id="Path" fill="#7F41FF"></path>
                    <path d="M137.728948,189.587883 L144.361374,255.414707 L215.328327,285.565713 C215.328327,285.565713 220.634267,291.813458 215.328327,299.977974 L135.487188,276.72469 L137.728948,189.587883 Z" id="Path" fill="#E2E2E2"></path>
                    <path d="M91.5274721,174.671558 L67.3323838,183.996749 C63.0134071,185.648905 60.213592,189.853951 60.3550722,194.475981 L64.0891277,312.32755 L139.698779,312.32755 L137.854964,191.358741 C137.771879,185.627212 134.094655,180.566715 128.669055,178.717338 L112.60532,173.245587 L91.5274721,174.671558 Z" id="Path" fill="#F0F1F4"></path>
                    <rect id="Rectangle" fill="#5377C4" x="397.010359" y="103.976535" width="1" height="209.737192"></rect>
                    <rect id="Rectangle" fill="#5377C4" x="406.368711" y="124.278389" width="1" height="184.52071"></rect>
                    <rect id="Rectangle" fill="#5377C4" x="403.052498" y="162.28882" width="1" height="152.625376"></rect>
                    <rect id="Rectangle" fill="#5377C4" x="386.119916" y="195.26524" width="1" height="119.648956"></rect>
                    <rect id="Rectangle" fill="#5377C4" x="412.0527" y="228.924799" width="1" height="84.7822953"></rect>
                    <path d="M382.352698,147.432187 C393.627822,141.741566 406.335549,144.301682 410.819069,153.15597 C415.302588,162.010258 409.824205,173.769548 398.608773,179.486699 C387.393342,185.20385 363.523242,206.467406 359.039723,197.64628 C354.556203,188.825154 371.11737,153.122808 382.352698,147.432187 Z" id="Path" fill="#303D72"></path>
                    <path d="M369.200599,260.687485 C378.844145,250.294474 395.405312,249.969485 406.196268,259.977815 C416.987224,269.986145 417.902499,286.507517 408.258953,296.913793 C398.615406,307.320069 383.931216,341.092379 373.146892,331.090682 C362.362568,321.088984 359.557052,271.087128 369.200599,260.687485 Z" id="Path" fill="#303D72"></path>
                    <path d="M360.565181,198.150345 C373.650956,189.289424 389.920296,190.456731 396.897608,200.76352 C403.874919,211.07031 398.933762,226.62998 385.854619,235.471003 C372.775476,244.312026 346.497806,274.602314 339.513862,264.302157 C332.529918,254.002 347.486038,207.011265 360.565181,198.150345 Z" id="Path" fill="#25ECAD"></path>
                    <path d="M360.565181,198.150345 C348.255399,206.487304 334.287511,248.556779 338.505733,262.106824 C349.867078,227.757492 357.248968,217.596616 369.014891,205.114391 C373.719044,200.129043 379.278705,196.027248 385.430144,193.003582 C377.875811,191.047017 368.616945,192.698491 360.565181,198.150345 Z" id="Path" fill="#12D094"></path>
                    <path d="M435.750356,156.180356 C420.734545,151.245831 405.413642,156.843599 401.533673,168.662581 C397.653704,180.481563 406.66717,194.078035 421.682982,199.005928 C436.698793,203.93382 470.272131,225.834089 474.1521,214.008474 C478.032069,202.182859 450.759535,161.108248 435.750356,156.180356 Z" id="Path" fill="#25ECAD"></path>
                    <path d="M435.750356,156.173724 C449.877423,160.816421 474.881667,197.45394 474.523516,211.614168 C454.168602,181.708562 444.279655,173.961889 429.535774,165.18719 C423.643493,161.677757 417.169391,159.2539 410.421123,158.030803 C417.179565,154.097774 426.511388,153.142705 435.750356,156.173724 Z" id="Path" fill="#12D094"></path>
                    <polygon id="Path" fill="#E2E2E2" points="61.2438172 222.040341 64.1023926 312.32755 139.712043 312.32755 138.995741 290.268103 76.4254392 256.031522 82.0895306 210.60604"></polygon>
                    <path d="M417.590775,110.582431 C407.907434,114.65474 402.661185,124.132476 405.864647,131.753133 C409.068108,139.37379 419.514179,142.265527 429.190887,138.193218 C438.867596,134.120909 465.251385,130.48634 462.047923,122.85905 C458.844462,115.231761 427.267484,106.516754 417.590775,110.582431 Z" id="Path" fill="#25ECAD"></path>
                    <path d="M396.950667,87.7138274 C402.999439,91.8657258 405.247831,99.0950696 401.971413,103.857151 C398.694995,108.619233 391.147295,109.110032 385.105155,104.958134 C379.063015,100.806235 361.533515,94.5717554 364.783403,89.8163063 C368.033292,85.0608572 390.908527,83.5685615 396.950667,87.7138274 Z" id="Path" fill="#303D72"></path>
                    <path d="M417.590775,110.582431 C426.697095,106.755521 455.189995,114.250162 461.192341,121.499403 C437.978851,115.364409 429.615363,115.788885 418.399931,117.811774 C413.916521,118.623513 409.613458,120.227055 405.692204,122.547326 C407.356943,117.639331 411.634857,113.089487 417.590775,110.582431 Z" id="Path" fill="#12D094"></path>
                    <rect id="Rectangle" fill="#A9C2DC" x="0" y="305.555843" width="459.845958" height="6.77170645"></rect>
                    <rect id="Rectangle" fill="#5377C4" x="0" y="312.32755" width="459.845958" height="3.38916944"></rect>
                    <path d="M363.304372,277.467521 C377.026861,269.627994 393.150287,272.028932 399.331708,282.839786 C405.513128,293.65064 399.398032,308.765937 385.682176,316.605464 C371.96632,324.444991 343.460155,352.6328 337.26547,341.808681 C331.070784,330.984563 349.588516,285.313681 363.304372,277.467521 Z" id="Path" fill="#25ECAD"></path>
                    <path d="M363.304372,277.467521 C350.397672,284.849411 333.27275,325.758212 336.443049,339.560289 C350.371143,306.179291 358.515761,296.602069 371.196959,285.055016 C376.268063,280.436894 382.123697,276.762242 388.487692,274.204368 C381.09917,271.703944 371.74745,272.639116 363.304372,277.467521 Z" id="Path" fill="#12D094"></path>
                    <path d="M447.821371,234.907247 C430.397989,222.968881 407.290618,222.968881 396.207835,234.960306 C385.125052,246.951732 390.238652,266.344944 407.688564,278.296575 C425.138475,290.248205 458.618959,329.492267 469.701742,317.514107 C480.784526,305.535946 465.244753,246.858878 447.821371,234.907247 Z" id="Path" fill="#25ECAD"></path>
                    <path d="M447.828003,234.907247 C464.223359,246.18237 478.947344,298.76424 471.393011,314.914196 C459.454645,271.989138 450.209044,258.936524 435.067216,242.68045 C428.827062,236.038561 421.46808,230.545142 413.326126,226.450904 C424.229833,224.733106 437.076841,227.551887 447.828003,234.907247 Z" id="Path" fill="#12D094"></path>
                    <path d="M124.875308,286.010085 C124.875308,286.010085 138.140159,289.82373 144.938395,291.979268 C151.736631,294.134807 155.961486,297.530609 155.629865,298.691283 C155.298243,299.851957 154.800811,300.097357 154.800811,300.097357 L127.110435,300.097357 L115.50369,293.425137 L124.875308,286.010085 Z" id="Path" fill="#FBAD83"></path>
                    <path d="M62.1192974,188.221604 C62.1192974,188.221604 36.9160804,250.374063 42.2220208,269.700951 C47.5279612,289.027839 124.6896,299.977974 124.6896,299.977974 C124.6896,299.977974 126.937992,294.340412 127.34257,290.029335 L127.773678,285.718259 L60.3550722,262.491505 C60.3550722,262.491505 82.0298388,218.81035 83.2170429,204.789403 C84.4042471,190.768455 62.1192974,188.221604 62.1192974,188.221604 Z" id="Path" fill="#F0F1F4"></path>
                    <path d="M173.517516,300.097357 L277.195592,300.097357 C279.470307,300.097357 281.314328,298.253336 281.314328,295.978621 L281.314328,223.791302 C281.314328,221.516586 279.470307,219.672565 277.195592,219.672565 L173.517516,219.672565 L173.517516,300.097357 Z" id="Path" fill="#A9C2DC"></path>
                    <path d="M172.164501,300.097357 L173.835873,300.097357 C175.867317,300.093707 177.513218,298.447805 177.516869,296.416361 L177.516869,223.353562 C177.513218,221.322118 175.867317,219.676216 173.835873,219.672565 L172.164501,219.672565 L172.164501,300.097357 Z" id="Path" fill="#204A99"></path>
                    <path d="M221.814839,259.884961 C221.814839,264.527659 224.626987,268.255082 228.095746,268.255082 C231.564504,268.255082 234.37002,264.507762 234.37002,259.884961 C234.37002,255.262161 231.557872,251.51484 228.095746,251.51484 C224.63362,251.51484 221.814839,255.262161 221.814839,259.884961 Z" id="Path" fill="#FFFFFF"></path>
                    <rect id="Rectangle" fill="#204A99" x="112.82419" y="300.097357" width="59.3336786" height="5.4584862"></rect>
                    <rect id="Rectangle" fill="#5377C4" x="172.164501" y="300.097357" width="105.700965" height="5.4584862"></rect>
                    <polygon id="Path" fill="#6F38E1" points="325.134764 276.72469 330.042758 145.488886 317.255442 142.537457 286.97842 276.72469"></polygon>
                    <path d="M91.5274721,174.671558 C91.5274721,174.671558 97.2247256,185.031407 105.95963,184.865596 C114.694534,184.699786 112.625218,173.245587 112.625218,173.245587 L91.5274721,174.671558 Z" id="Path" fill="#FFFFFF"></path>
                    <path d="M128.383861,121.147884 C128.383861,121.147884 132.747997,156.498712 131.036831,163.4097 C129.325665,170.320687 111.802797,168.914613 103.107687,168.211576 C94.4125772,167.508539 89.7831442,168.682478 85.9761319,166.560102 C82.1691197,164.437726 89.1464313,142.325219 89.1464313,142.325219 L128.383861,121.147884 Z" id="Path" fill="#21170C"></path>
                    <path d="M119.456616,170.128347 C114.045896,170.252661 109.40852,166.285222 108.6939,160.92046 C107.979279,155.555699 111.416403,150.512684 116.670997,149.216309 C116.846683,149.169744 117.027116,149.273271 117.075575,149.448444 C117.122503,149.625784 117.019522,149.808208 116.84344,149.859654 C111.790482,151.239744 108.673156,156.301455 109.714659,161.434905 C110.756163,166.568355 115.599696,170.014922 120.790976,169.316602 C125.982256,168.618283 129.742849,164.014309 129.390796,158.788115 C129.038743,153.561921 124.694652,149.503904 119.456616,149.508136 C119.273467,149.508136 119.124995,149.359664 119.124995,149.176515 C119.128523,148.994847 119.274948,148.848422 119.456616,148.844893 C125.333879,148.844893 130.098343,153.609357 130.098343,159.48662 C130.098343,165.363884 125.333879,170.128347 119.456616,170.128347 Z" id="Path" fill="#FFFFFF"></path>
                    <path d="M114.276692,158.873121 L112.60532,173.245587 C112.60532,173.245587 110.615593,176.5618 100.21595,176.5618 C97.2121697,176.616288 94.23712,175.969045 91.5274721,174.671558 L91.5274721,149.309163 L114.276692,158.873121 Z" id="Path" fill="#FBAD83"></path>
                    <path d="M114.276692,158.873121 L113.129282,168.762067 C111.226252,168.906488 109.312323,168.76339 107.451926,168.337592 C104.997928,167.773836 97.9874545,160.531227 93.5238322,150.158114 L114.276692,158.873121 Z" id="Path" fill="#E68D5C"></path>
                    <path d="M127.700721,113.155812 C127.700721,113.155812 130.128189,137.251414 126.739019,148.91785 C123.34985,160.584287 112.810926,165.498914 103.465838,163.38317 C100.003712,162.587279 87.4684277,148.493375 85.883278,131.083258 C84.2981283,113.673141 85.8103213,108.426892 88.642367,104.745896 C91.4744127,101.0649 117.208224,96.481894 121.884084,100.507776 C126.559944,104.533659 127.700721,113.155812 127.700721,113.155812 Z" id="Path" fill="#FBAD83"></path>
                    <path d="M119.456616,112.273699 C119.456616,112.273699 127.34257,123.416174 129.332298,123.741163 C131.322025,124.066152 131.540895,116.664365 131.050096,110.00541 C130.247572,99.4863827 122.938639,94.8436848 122.938639,94.8436848 L119.456616,112.273699 Z" id="Path" fill="#21170C"></path>
                    <path d="M126.957889,103.465838 C126.957889,103.465838 124.603378,116.452127 119.662221,124.218697 C114.721064,131.985268 96.17017,129.153222 92.8539572,129.385357 C89.5377444,129.617492 93.3248594,155.735983 95.6793705,164.444358 C98.0338815,173.152733 81.0880343,170.559455 75.6759751,169.385515 C70.2639159,168.211576 67.4385026,122.335089 74.5020358,104.566821 C81.565569,86.7985527 110.734976,87.488325 118.733682,91.3815587 C123.423985,93.6662995 126.553296,98.264368 126.957889,103.465838 Z" id="Path" fill="#21170C"></path>
                    <path d="M84.8021926,143.923634 C84.8021926,147.345965 89.3586689,150.390249 92.1509201,150.390249 C94.9431712,150.390249 94.923274,147.345965 94.923274,143.923634 C94.923274,140.501302 92.6549844,137.722316 89.8627333,137.722316 C87.0704821,137.722316 84.8021926,140.474772 84.8021926,143.923634 Z" id="Path" fill="#FBAD83"></path>
                    <path d="M87.0041579,142.391543 C87.3291467,140.706907 89.8494684,139.652352 91.2157481,139.917649 C92.5820277,140.182946 88.9938855,141.144647 88.6688967,142.822651 C88.3439078,144.500655 90.2606788,146.178658 88.8943992,145.913361 C87.5281195,145.648064 86.679169,144.069547 87.0041579,142.391543 Z" id="Path" fill="#E68D5C"></path>
                    <path d="M106.629505,135.832075 C106.335775,135.831316 106.07753,135.637448 105.994815,135.355604 C105.9121,135.07376 106.024619,134.771081 106.271354,134.611708 L112.074726,130.851123 C112.229752,130.75067 112.419648,130.719421 112.598688,130.764901 L116.8965,131.885781 C117.251809,131.979188 117.464124,132.342944 117.370718,132.698253 C117.277312,133.053563 116.913556,133.265878 116.558246,133.172472 L112.545629,132.124549 L106.987656,135.725956 C106.880905,135.794911 106.75659,135.831745 106.629505,135.832075 Z" id="Path" fill="#21170C"></path>
                    <path d="M130.393486,134.286719 C130.266401,134.28639 130.142086,134.249556 130.035335,134.180601 L126.858403,132.124549 L122.878947,133.172472 C122.649102,133.232895 122.404481,133.166108 122.237231,132.997267 C122.06998,132.828427 122.005509,132.583185 122.068104,132.353922 C122.130698,132.124659 122.310849,131.946205 122.540694,131.885781 L126.838506,130.764901 C127.017546,130.719421 127.207442,130.75067 127.362467,130.851123 L130.784799,133.066353 C131.032581,133.226387 131.144899,133.530829 131.060422,133.813443 C130.975945,134.096056 130.714976,134.288919 130.420015,134.286719 L130.393486,134.286719 Z" id="Path" fill="#21170C"></path>
                    <path d="M91.5274721,170.128347 C86.1329517,170.237465 81.5153219,166.281251 80.7957694,160.933821 C80.0762168,155.586392 83.4838373,150.550296 88.7153237,149.229574 C88.898473,149.180124 89.0870324,149.288508 89.1364827,149.471658 C89.185933,149.654807 89.0775485,149.843366 88.8943992,149.892817 C83.8414404,151.272906 80.7241147,156.334617 81.7656181,161.468067 C82.8071215,166.601517 87.6506547,170.048084 92.8419349,169.349764 C98.0332151,168.651445 101.793807,164.047471 101.441755,158.821277 C101.089702,153.595084 96.7456109,149.537066 91.5075748,149.541298 C91.3244254,149.541298 91.1759535,149.392826 91.1759535,149.209677 C91.1759535,149.026527 91.3244254,148.878056 91.5075748,148.878056 C97.3848382,148.878056 102.149302,153.642519 102.149302,159.519782 C102.149302,165.397046 97.3848382,170.161509 91.5075748,170.161509 L91.5274721,170.128347 Z" id="Path" fill="#FFFFFF"></path>
                    <path d="M299.652985,79.9804193 L299.652985,109.083502 C299.652985,109.083502 294.764887,113.235401 286.169264,112.737969 C278.210353,112.280332 276.950192,109.421756 276.950192,109.421756 L273.633979,94.3263557 L299.626455,80.006949" id="Path" fill="#FBAD83"></path>
                    <path d="M276.393068,106.848375 C279.573597,105.545752 282.540434,103.772804 285.194297,101.588862 C289.197787,98.5137658 292.198539,94.3196379 293.81645,89.5377444 L276.373171,92.8539572 L273.720201,94.3263557 L276.45276,106.874905" id="Path" fill="#E68D5C"></path>
                    <rect id="Rectangle" fill="#21170C" x="254.479535" y="63.1207936" width="14.7704116" height="1"></rect>
                    <path d="M258.876833,42.6464961 C258.876833,42.6464961 256.369776,48.8478139 256.369776,54.273138 C256.369776,58.6439064 258.134001,66.8747465 258.134001,66.8747465 L268.182126,41.2205246 L258.876833,42.6464961 Z" id="Path" fill="#7A4029"></path>
                    <path d="M259.487016,91.7861367 C267.445926,108.499849 287.157495,98.6241674 295.607205,90.1943546 C304.056915,81.7645417 302.902873,49.550851 300.548362,43.4490195 C298.193851,37.3471881 278.661358,32.3993986 268.394363,36.332427 C258.127369,40.2654553 251.54137,75.065792 259.487016,91.7861367" id="Path" fill="#FBAD83"></path>
                    <path d="M256.376408,80.006949 C256.77684,84.0743993 257.827047,88.0513007 259.487016,91.7861367 C262.650683,98.4185622 267.671429,100.87256 273.110018,100.87256 C267.678061,100.87256 262.650683,98.4318271 259.493648,91.7861367 C257.833679,88.0513007 256.783473,84.0743993 256.383041,80.006949" id="Path" fill="#D7C5BE"></path>
                    <path d="M302.060555,66.8946437 L293.153208,66.8946437 C293.153208,66.8946437 287.256981,82.3548276 282.196441,83.8404909 C281.790255,83.9520707 281.370774,84.0078528 280.949545,84.0063016 C276.731322,84.0063016 271.12029,78.8860691 264.03686,78.5876099 C263.373617,78.5876099 262.789964,78.5411829 262.252737,78.5411829 C259.221719,78.5411829 257.862072,78.9921879 256.363143,80.006949 C256.763575,84.0743993 257.813782,88.0513007 259.473751,91.7861367 C262.630786,98.4185622 267.658164,100.87256 273.090121,100.87256 C281.320961,100.87256 290.500238,95.2747925 295.587308,90.1943546 C299.672882,86.1154129 301.510064,76.4652338 302.04729,66.8946437" id="Path" fill="#D48C68"></path>
                    <path d="M299.407585,68.9374308 C296.521949,68.6707294 293.867961,67.244775 292.052761,64.9857761 C290.237561,62.7267772 289.416462,59.8280197 289.777303,56.9526379 C290.228308,53.3313336 291.296129,52.1706591 290.354324,48.7416951 C288.51051,41.897032 280.273037,42.5403772 274.741594,45.1004935 C269.210152,47.6606097 263.168012,47.6473449 258.40593,44.0459378 C256.137641,42.3347721 253.285698,37.5660581 256.369776,32.5851066 C259.453854,27.604155 270.423885,21.6217072 270.423885,21.6217072 C270.423885,21.6217072 269.0974,24.6129311 269.53514,26.1649187 C269.972881,27.7169062 299.122391,18.9554721 305.091574,31.9085991 C311.060757,44.8617262 303.101846,69.2756845 303.101846,69.2756845 L299.407585,68.9374308 Z" id="Path" fill="#7A4029"></path>
                    <path d="M304.527817,69.1098739 C304.527817,73.4209504 298.797402,77.24786 295.282216,77.24786 C291.767031,77.24786 291.826723,73.4209504 291.826723,69.1098739 C291.826723,64.7987973 294.678666,61.303509 298.193851,61.303509 C301.709037,61.303509 304.527817,64.7987973 304.527817,69.1098739 Z" id="Path" fill="#FBAD83"></path>
                    <path d="M301.901377,68.7251932 C302.305955,70.655229 300.10399,72.9102537 298.532105,73.241875 C296.96022,73.5734962 300.342757,70.9404233 299.931547,69.0103875 C299.520336,67.0803516 296.734717,66.1650769 298.306602,65.8334557 C299.878487,65.5018344 301.490167,66.7951574 301.901377,68.7251932 Z" id="Path" fill="#E68D5C"></path>
                    <path d="M259.99108,72.5454703 C256.787619,72.5454703 254.181075,69.1695657 254.181075,65.0176673 C254.181075,60.8657689 256.787619,57.4898644 259.99108,57.4898644 C263.194542,57.4898644 265.801085,60.8657689 265.801085,65.0176673 C265.801085,69.1695657 263.16138,72.5454703 259.99108,72.5454703 Z M259.99108,58.1531069 C257.152402,58.1531069 254.844318,61.2305523 254.844318,65.0176673 C254.844318,68.8047823 257.152402,71.8822277 259.99108,71.8822277 C262.829758,71.8822277 265.137842,68.7981499 265.137842,65.0176673 C265.137842,61.2371848 262.796596,58.1531069 259.99108,58.1531069 Z" id="Shape" fill="#21170C" fill-rule="nonzero"></path>
                    <path d="M273.660509,72.5454703 C270.457048,72.5454703 267.850504,69.1695657 267.850504,65.0176673 C267.850504,60.8657689 270.457048,57.4898644 273.660509,57.4898644 C276.863971,57.4898644 279.470514,60.8657689 279.470514,65.0176673 C279.470514,69.1695657 276.863971,72.5454703 273.660509,72.5454703 Z M273.660509,58.1531069 C270.821831,58.1531069 268.513747,61.2305523 268.513747,65.0176673 C268.513747,68.8047823 270.821831,71.8822277 273.660509,71.8822277 C276.499187,71.8822277 278.807271,68.7981499 278.807271,65.0176673 C278.807271,61.2371848 276.499187,58.1531069 273.660509,58.1531069 Z" id="Shape" fill="#21170C" fill-rule="nonzero"></path>
                    <rect id="Rectangle" fill="#21170C" x="279.006244" y="63.1207936" width="13.6428993" height="1"></rect>
                    <rect id="Rectangle" fill="#21170C" x="265.436301" y="63.1207936" width="2.73919174" height="1"></rect>
                    <path d="M260.04414,82.8588919 L272.420246,82.8588919 C272.420246,82.8588919 269.939718,88.7153237 265.734761,88.8745019 C261.529803,89.0336801 260.04414,82.8588919 260.04414,82.8588919 Z" id="Path" fill="#FFFFFF"></path>
                    <path d="M343.559642,154.363071 L324.325608,160.995497 L333.611003,198.435539 L312.98416,278.986347 L307.134361,282.441841 C307.134361,282.441841 306.802739,291.063994 313.189765,292.7221 C319.576791,294.380206 321.891507,289.657919 321.891507,289.657919 L321.891507,283.337218 C327.005108,270.417253 352.665962,205.432748 353.063907,201.241055 C353.50828,196.585092 343.559642,154.363071 343.559642,154.363071 Z" id="Path" fill="#FBAD83"></path>
                    <path d="M322.189967,163.310213 C322.189967,163.310213 314.609104,140.919145 317.792669,131.885781 C320.087488,125.372739 324.517948,123.177407 327.933647,122.262132 C331.349346,121.346857 339.692938,130.347059 344.216252,146.052642 C347.346757,156.92982 347.625318,158.097127 347.625318,158.097127 C347.625318,158.097127 331.860043,167.137123 322.189967,163.310213 Z" id="Path" fill="#7F41FF"></path>
                    <path d="M304.335477,108.950854 C304.335477,108.950854 306.325205,106.961126 311.445437,108.950854 C316.56567,110.940582 317.600328,114.203735 317.328399,117.473521 C317.056469,120.743306 310.79546,122.401413 306.842534,121.293798 C302.889608,120.186183 299.387688,115.875106 299.672882,114.124146 C299.958076,112.373185 304.335477,108.950854 304.335477,108.950854 Z" id="Path" fill="#A55B3A"></path>
                    <path d="M60.1163049,193.832636 C57.7986272,192.35896 56.2198565,189.966387 55.7765499,187.255883 C55.3332433,184.54538 56.0675245,181.774504 57.7949559,179.639245 C58.0005611,179.38058 58.2194312,179.128548 58.4581985,178.869884 C63.00141,173.82924 67.2395299,174.127699 70.874099,175.898557 C74.5086682,177.669415 73.6331881,185.601796 70.608802,189.654208 C67.584416,193.70662 62.2453134,195.086164 60.3550722,193.985181 L60.1163049,193.832636 Z" id="Path" fill="#A55B3A"></path>
                    <polygon id="Path" fill="#FFFFFF" points="157.991008 94.8436848 166.394291 88.6688967 175.314904 93.006503 174.121067 83.6282533 149.906081 83.296632"></polygon>
                    <path d="M149.892817,52.2502482 L149.892817,83.296632 C149.892817,83.296632 155.105903,87.7204598 164.278548,87.1898658 C172.76142,86.6990663 174.107802,83.6282533 174.107802,83.6282533 L177.616355,67.5247242 L149.892817,52.2502482 Z" id="Path" fill="#A55B3A"></path>
                    <path d="M174.717985,80.9155913 C170.154877,81.9303524 164.882098,79.0916743 160.942438,75.9611694 C153.679932,70.1909592 150.741767,58.7168631 150.741767,58.7168631 L174.771045,65.9395745 L177.62962,67.5114593 L174.717985,80.9155913 Z" id="Path" fill="#8E4A2F"></path>
                    <path d="M192.247486,14.9030601 C192.247486,14.9030601 196.35959,16.4351504 196.074395,26.2511402 C195.935115,30.893838 194.197419,39.714964 194.197419,39.714964 L183.479419,12.3429439 L192.247486,14.9030601 Z" id="Path" fill="#21170C"></path>
                    <path d="M192.75155,66.2579309 C184.27531,84.0925231 163.237257,73.5535989 154.22379,64.5666624 C145.210324,55.5797258 146.463853,21.2237616 148.957645,14.7040874 C151.451437,8.18441308 172.27062,2.9116348 183.253917,7.11659258 C194.237214,11.3215504 201.22779,48.4167063 192.75155,66.2579309 Z" id="Path" fill="#A55B3A"></path>
                    <path d="M160.769994,36.4783403 C160.769994,36.4783403 163.111241,56.2164387 168.516667,57.7949559 C173.159365,59.121441 179.559656,52.5487073 187.88335,52.1971888 C192.526048,51.998216 194.190787,52.4359561 196.074395,53.7093818 C195.649955,58.0474256 194.530238,62.2889108 192.758183,66.2711957 C184.281943,84.1057879 163.243889,73.5668638 154.230423,64.5799272 C149.892817,60.2157912 147.903089,49.9156344 147.339333,39.714964 L160.769994,36.4783403 Z" id="Path" fill="#21170C"></path>
                    <path d="M157.234912,43.5418735 C157.234912,43.5418735 159.834822,43.8005381 160.896011,42.2551829 C161.957199,40.7098278 158.906283,31.9815558 161.990361,22.7226898 C164.185694,16.0902643 174.167494,12.2898845 182.338642,13.8949315 C190.50979,15.4999784 192.565842,16.2229128 193.401528,13.8485045 C194.237214,11.4740961 190.954163,5.88959386 188.095588,3.68099616 C185.237012,1.47239846 171.972161,-2.43410016 160.902643,2.08921404 C149.833125,6.61252824 147.637792,9.617017 145.130735,16.7933014 C142.623678,23.9695858 144.248623,41.9500914 145.130735,43.097501 C146.012848,44.2449106 157.234912,43.5418735 157.234912,43.5418735 Z" id="Path" fill="#21170C"></path>
                    <path d="M144.712892,42.0761075 C144.712892,46.6723783 150.821356,50.7579525 154.568677,50.7579525 C158.315997,50.7579525 158.289467,46.6723783 158.289467,42.0761075 C158.289467,37.4798366 155.251816,33.7524134 151.497864,33.7524134 C147.743911,33.7524134 144.712892,37.4798366 144.712892,42.0761075 Z" id="Path" fill="#A55B3A"></path>
                    <path d="M196.074395,53.7226467 C196.074395,53.7226467 196.074395,75.3377214 193.527544,79.2375876 C190.980693,83.1374538 182.630469,83.9797719 178.849986,82.3548276 C175.069504,80.7298834 168.901348,74.8668192 167.395788,69.9057649 C165.890227,64.9447106 189.780224,57.8347505 189.780224,57.8347505 L196.074395,53.7226467 Z" id="Path" fill="#21170C"></path>
                    <path d="M147.193419,39.9272016 C146.755679,41.9832535 149.103558,44.390824 150.781562,44.7489749 C152.459565,45.1071259 148.851526,42.2949775 149.289266,40.2322932 C149.727006,38.1696088 152.698333,37.2012747 151.020329,36.8431237 C149.342325,36.4849728 147.624527,37.8711497 147.193419,39.9272016 Z" id="Path" fill="#8E4A2F"></path>
                    <path d="M191.677097,60.7662826 C191.677097,60.7662826 182.710058,61.0050499 181.217762,60.5275152 L179.738731,60.056613 C179.738731,60.056613 179.778526,64.4406463 183.937057,65.9528393 C188.095588,67.4650323 190.37051,64.6727812 190.927633,63.127426 C191.484757,61.5820709 191.677097,60.7662826 191.677097,60.7662826 Z" id="Path" fill="#FFFFFF"></path>
                    <path d="M189.475132,33.2881437 C189.154527,33.2846144 188.882349,33.0522478 188.828582,32.7361633 C188.774815,32.4200788 188.954855,32.1107886 189.256262,32.0014531 C191.80803,31.2457464 194.524123,31.2457464 197.075892,32.0014531 C197.314937,32.056488 197.504088,32.2389679 197.567665,32.4758845 C197.631243,32.712801 197.558866,32.9654634 197.379491,33.132784 C197.200116,33.3001046 196.943037,33.3547583 196.711108,33.2748788 C194.418383,32.616638 191.986728,32.616638 189.694002,33.2748788 C189.622287,33.2914133 189.548319,33.2958961 189.475132,33.2881437 Z" id="Path" fill="#21170C"></path>
                    <path d="M174.346569,35.5166386 C174.186211,35.5182452 174.0307,35.461696 173.908829,35.3574604 C173.632442,35.1174506 173.602758,34.6989035 173.842505,34.4222884 C174.001683,34.2432129 177.742371,30.0316227 184.407959,32.1606313 C184.63425,32.2317174 184.805427,32.4181284 184.85701,32.6496451 C184.908593,32.8811618 184.832745,33.1226112 184.658037,33.2830417 C184.48333,33.4434723 184.236304,33.4985107 184.010013,33.4274246 C178.193376,31.5703454 174.97665,35.1385904 174.844001,35.2911362 C174.718271,35.4342535 174.537071,35.5163974 174.346569,35.5166386 Z" id="Path" fill="#21170C"></path>
                </g>
            </g>
        </g>
    </g>
</svg>